<?xml version="1.0" standalone="no"?>
<!DOCTYPE svg PUBLIC "-//W3C//DTD SVG 20010904//EN"
 "http://www.w3.org/TR/2001/REC-SVG-20010904/DTD/svg10.dtd">
<svg version="1.0" xmlns="http://www.w3.org/2000/svg"
 width="1200.000000pt" height="960.000000pt" viewBox="0 0 1200.000000 960.000000"
 preserveAspectRatio="xMidYMid meet">

<g transform="translate(0.000000,960.000000) scale(0.100000,-0.100000)"
fill="#000000" stroke="none">
<path d="M5656 7774 c-121 -16 -262 -55 -330 -92 -136 -72 -267 -266 -305
-452 l-19 -92 -84 -81 c-97 -93 -111 -123 -129 -270 l-11 -90 -98 -146 c-130
-195 -210 -328 -292 -491 -65 -127 -72 -137 -127 -175 -81 -55 -100 -73 -147
-130 -101 -125 -152 -248 -180 -439 -40 -269 26 -668 176 -1061 48 -125 126
-304 141 -322 10 -11 88 -13 432 -13 417 1 420 1 451 23 31 22 34 22 507 25
l476 3 11 -26 12 -25 529 0 c291 0 536 3 545 6 9 3 16 12 16 19 0 7 7 16 16
19 28 11 656 7 649 -4 -3 -6 -97 -71 -208 -145 -111 -75 -212 -143 -225 -153
l-22 -17 36 -53 c19 -29 41 -55 49 -58 7 -3 44 15 82 40 37 25 72 46 78 46 5
0 42 -49 82 -108 176 -264 264 -392 268 -392 13 0 145 94 145 103 0 6 -22 42
-49 81 -26 39 -103 152 -169 250 l-122 180 81 53 80 54 -17 27 c-9 15 -27 41
-40 59 -30 40 -30 43 4 43 72 0 86 94 38 255 -20 64 -28 113 -28 170 -1 82 2
90 75 292 39 106 51 198 43 353 -24 548 -184 1003 -486 1385 -108 137 -372
389 -528 505 -171 126 -370 249 -549 337 -122 61 -132 68 -149 107 -103 239
-155 336 -208 389 l-27 27 -187 -1 c-103 -1 -232 -7 -286 -15z m96 -356 c86
-46 113 -85 112 -162 -1 -59 -28 -135 -54 -151 -19 -12 -10 -44 38 -122 112
-184 158 -304 147 -382 -12 -83 -150 -193 -392 -312 -111 -55 -133 -63 -198
-67 -41 -2 -86 -1 -101 2 -36 9 -132 103 -275 268 -100 116 -121 146 -135 194
-20 70 -14 147 17 210 26 55 91 138 124 160 23 15 27 15 58 -5 49 -30 67 -27
126 24 31 27 63 45 77 45 26 0 112 -40 135 -62 36 -35 104 -47 152 -29 14 6
64 46 111 90 47 45 90 81 96 81 5 0 10 5 10 11 0 9 -88 10 -340 4 -339 -7
-340 -7 -340 14 0 31 37 123 63 155 l24 29 22 -32 c30 -41 70 -61 124 -61 55
0 96 14 227 79 57 28 105 51 108 51 2 0 31 -14 64 -32z m1193 -1077 c35 -71
105 -247 121 -306 7 -27 20 -91 29 -141 10 -63 29 -121 59 -185 24 -52 56
-128 72 -170 l29 -77 90 2 c75 1 99 -3 145 -23 63 -28 142 -77 184 -115 62
-56 106 -140 54 -102 -133 94 -321 173 -382 161 -74 -15 -69 -5 -61 -134 11
-187 7 -318 -15 -420 -10 -52 -23 -98 -27 -102 -4 -4 -8 87 -9 204 -1 368 -42
563 -184 863 -37 80 -50 118 -50 153 0 108 -43 320 -85 424 -16 37 6 14 30
-32z m-865 -358 c21 -47 68 -186 90 -269 17 -66 60 -299 60 -328 0 -5 -93 -5
-210 -1 -128 4 -210 4 -210 -2 0 -8 117 -31 398 -80 l32 -5 0 -150 c0 -137
-13 -383 -26 -484 -5 -39 -8 -43 -55 -62 l-50 -21 -77 66 c-116 100 -170 153
-211 208 -62 83 -127 196 -158 274 -30 78 -39 89 -203 232 -248 217 -289 269
-369 472 -45 114 -47 111 57 104 100 -6 231 -44 385 -113 l98 -44 67 43 c37
25 119 72 182 106 63 34 122 66 130 71 30 17 56 11 70 -17z m-1027 -770 c-2
-197 -3 -364 -3 -370 0 -7 -8 -13 -19 -13 -15 0 -19 11 -24 68 -10 103 -8 378
3 472 13 106 33 200 43 200 1 0 1 -161 0 -357z m150 -456 c57 -89 59 -100 15
-85 -53 17 -78 51 -78 109 0 27 3 49 8 49 4 0 28 -33 55 -73z m-34 -138 c51
-15 54 -25 50 -171 -4 -99 -7 -117 -27 -145 -13 -18 -27 -33 -32 -33 -4 0 -14
20 -21 45 -7 25 -17 45 -21 45 -19 0 -38 -110 -38 -226 l0 -122 -47 5 c-27 2
-79 12 -116 21 -65 15 -71 15 -115 -2 -69 -27 -101 -29 -162 -14 -50 13 -60
12 -100 -3 -65 -26 -235 -26 -249 -1 -9 18 -45 161 -57 225 l-6 38 36 -25 c38
-25 103 -41 146 -34 17 2 24 11 27 33 2 17 9 48 14 69 l11 40 26 -35 c53 -69
103 -108 154 -124 91 -27 138 -14 138 38 0 12 3 33 7 46 5 21 10 22 45 17 58
-9 74 5 98 87 21 72 48 149 90 260 l22 58 43 -40 c24 -22 62 -45 84 -52z
m1194 13 c9 -26 21 -91 27 -143 7 -51 16 -98 21 -103 5 -6 40 -1 89 10 58 15
83 17 90 9 5 -6 15 -43 21 -83 7 -40 17 -72 23 -72 27 0 115 52 160 94 27 25
51 46 52 46 2 0 0 -30 -3 -67 l-6 -66 55 6 c89 9 170 71 245 189 43 68 43 68
38 12 -3 -27 -12 -136 -21 -241 l-17 -193 -96 -2 c-173 -4 -184 -2 -268 48
-31 18 -32 18 -85 -5 -76 -34 -100 -36 -146 -12 -51 26 -62 26 -114 1 -29 -14
-62 -20 -109 -20 l-66 0 -12 90 c-6 50 -16 100 -22 113 -11 25 -65 51 -74 37
-3 -5 -11 -46 -17 -92 -6 -46 -12 -89 -14 -95 -4 -17 -26 -16 -49 1 -18 13
-18 21 -9 152 8 101 16 151 31 184 19 42 26 47 103 79 86 37 97 47 125 124 10
26 21 47 25 47 4 0 15 -22 23 -48z m-950 -200 c26 -35 47 -65 45 -67 -2 -1
-33 -5 -70 -8 l-68 -5 1 102 0 101 22 -29 c12 -16 44 -59 70 -94z m49 -162
c-45 -41 -65 -93 -64 -167 l1 -63 -43 0 -43 0 -7 46 c-14 109 -4 185 28 206 6
4 45 8 86 8 l74 0 -32 -30z m363 -20 c129 -31 123 -25 121 -122 l-1 -83 -225
0 -225 0 0 82 c1 90 12 113 70 140 40 18 143 11 260 -17z m1633 -7 c-4 -54 1
-63 37 -63 19 0 104 9 189 20 85 11 161 17 169 14 19 -7 45 -66 56 -126 l8
-47 -326 -3 c-179 -2 -328 -2 -330 -1 -2 2 5 46 15 100 l19 97 55 12 c86 18
110 17 108 -3z m-2235 -115 c3 -24 9 -53 13 -66 6 -22 4 -23 -32 -20 l-39 3 1
47 c1 80 47 109 57 36z"/>
<path d="M9000 6160 c0 -7 -7 -58 -15 -114 -25 -171 -55 -409 -53 -411 4 -4
763 -104 765 -101 2 2 35 251 53 401 6 44 12 94 15 112 6 35 6 35 -102 48
l-53 7 0 -34 c0 -43 -37 -318 -44 -325 -6 -7 -139 7 -153 15 -7 5 -4 55 9 151
10 79 17 145 15 148 -3 2 -36 7 -73 10 l-69 6 -17 -143 c-9 -78 -19 -145 -22
-147 -3 -3 -37 -2 -75 2 -59 6 -71 10 -71 25 0 9 9 84 20 165 11 81 20 153 20
161 0 13 -19 18 -102 30 -35 4 -48 3 -48 -6z"/>
<path d="M2695 6120 c-66 -10 -156 -23 -200 -30 -44 -6 -92 -14 -106 -16 -18
-4 -44 -28 -83 -79 l-56 -75 30 -207 c43 -296 31 -266 99 -258 83 9 395 57
399 61 2 1 -7 73 -20 159 l-23 156 -65 -7 c-36 -3 -68 -9 -72 -13 -4 -4 -3
-34 2 -66 16 -96 19 -91 -62 -103 -39 -6 -75 -9 -78 -7 -8 5 -45 253 -39 259
4 4 306 45 395 53 l50 5 13 -93 c8 -52 19 -133 25 -181 7 -48 14 -90 17 -92 4
-5 149 11 155 17 1 1 -11 92 -27 202 -16 110 -29 205 -29 212 0 6 -33 36 -74
67 -84 63 -75 62 -251 36z"/>
<path d="M8930 5316 c-30 -12 -67 -26 -82 -29 -23 -6 -34 -26 -88 -154 -35
-82 -78 -183 -98 -226 -19 -42 -33 -80 -30 -82 16 -16 703 -304 709 -298 15
15 68 158 61 164 -4 3 -47 23 -97 44 -49 20 -91 38 -92 39 0 0 14 37 32 81
l33 80 122 5 121 5 34 80 c19 44 35 86 35 93 0 10 -31 12 -146 10 l-145 -3
-22 54 -22 54 -124 54 c-68 29 -129 53 -135 53 -6 -1 -36 -11 -66 -24z m133
-202 c59 -26 107 -50 107 -55 0 -5 -21 -56 -47 -114 -41 -92 -50 -106 -68
-102 -40 10 -210 86 -213 96 -2 5 10 40 26 78 17 37 37 85 46 106 8 20 21 37
28 37 7 0 61 -21 121 -46z"/>
<path d="M2860 5182 c-91 -42 -193 -90 -227 -105 l-61 -28 -31 -82 c-17 -46
-31 -87 -31 -93 0 -18 151 -339 165 -349 7 -6 50 -24 94 -39 80 -28 81 -28
119 -10 20 9 114 53 207 97 94 43 179 83 190 88 13 7 32 43 54 101 l34 90 -30
62 c-17 33 -54 111 -83 173 l-52 111 -85 31 c-47 17 -88 31 -92 31 -3 0 -80
-35 -171 -78z m240 -123 c0 -6 16 -45 36 -87 69 -148 67 -141 42 -151 -13 -5
-68 -30 -123 -56 -182 -86 -247 -115 -259 -115 -10 0 -111 211 -111 232 0 10
373 186 398 187 9 1 17 -4 17 -10z"/>
<path d="M3524 4482 c-22 -20 -141 -127 -264 -237 -123 -110 -234 -209 -247
-221 l-22 -20 56 -65 c31 -35 60 -66 65 -67 4 -2 43 29 85 68 l77 72 63 -67
62 -68 -43 -86 c-66 -132 -67 -121 4 -199 34 -37 66 -67 72 -67 5 0 33 56 62
125 l52 125 66 3 65 3 99 89 c54 49 102 99 106 112 3 13 6 58 7 100 l1 77 -62
71 c-35 38 -106 119 -158 179 -52 60 -97 110 -100 110 -3 0 -23 -17 -46 -37z
m218 -377 c5 -8 -26 -41 -86 -94 -52 -44 -98 -81 -102 -81 -5 0 -44 41 -88 91
l-78 90 63 57 c34 31 78 70 98 85 l35 28 75 -82 c42 -45 79 -87 83 -94z"/>
<path d="M8461 4511 c-40 -5 -58 -13 -73 -31 -11 -14 -65 -78 -120 -143 l-101
-119 5 -89 c3 -52 11 -97 19 -108 8 -11 75 -70 149 -132 74 -62 155 -130 180
-151 l44 -39 86 7 c47 3 92 9 101 13 9 3 69 69 133 146 128 155 124 145 108
283 -7 51 -10 56 -69 105 -35 29 -121 100 -192 160 -143 118 -132 114 -270 98z
m185 -276 c74 -64 148 -125 165 -137 16 -12 29 -25 29 -29 0 -12 -161 -199
-171 -199 -5 0 -45 30 -88 68 -43 37 -117 99 -164 137 -47 39 -86 74 -86 79
-1 5 29 42 65 84 36 41 71 83 77 94 7 10 18 18 25 18 7 0 73 -52 148 -115z"/>
<path d="M4158 3902 c-8 -9 -26 -36 -41 -59 l-27 -42 35 -27 c19 -14 35 -30
35 -34 0 -9 -233 -355 -257 -382 -15 -17 -17 -17 -42 1 -14 10 -31 21 -38 25
-12 7 -83 -87 -83 -110 0 -6 33 -30 73 -54 39 -24 104 -67 142 -96 39 -29 76
-54 82 -56 6 -2 27 21 47 51 36 53 43 71 29 71 -5 1 -21 11 -36 24 l-28 23
132 196 c72 109 138 197 145 197 7 0 26 -8 43 -17 16 -10 31 -15 33 -13 2 3
20 26 40 51 20 25 33 50 30 56 -4 5 -38 30 -77 53 -38 24 -104 70 -146 102
-71 53 -78 56 -91 40z"/>
<path d="M4650 3498 c-108 -280 -240 -631 -237 -634 1 -2 92 -37 202 -79 110
-41 226 -86 258 -100 l58 -24 16 37 c24 58 93 244 93 252 0 4 -34 19 -76 33
l-76 25 -19 -41 c-10 -23 -19 -47 -19 -53 0 -30 -26 -31 -95 -3 -38 15 -78 30
-87 32 -10 3 -18 13 -18 22 0 15 62 185 166 453 21 53 33 97 28 102 -12 11
-134 60 -150 60 -7 0 -27 -37 -44 -82z"/>
<path d="M7005 3469 c-110 -39 -205 -75 -211 -82 -6 -7 -26 -44 -44 -83 l-32
-71 42 -131 c23 -71 46 -135 50 -142 5 -8 56 1 194 34 102 25 195 46 205 46
15 0 24 -15 40 -62 12 -34 18 -65 14 -69 -5 -4 -66 -26 -138 -49 -187 -61
-235 -80 -235 -94 0 -28 43 -136 53 -135 7 0 107 33 222 73 l210 72 37 70 c21
38 38 80 38 94 0 14 -21 86 -48 161 l-47 136 -190 -48 c-104 -26 -197 -48
-207 -48 -21 -1 -64 118 -45 124 7 3 91 32 187 65 96 33 178 64 182 68 5 5 -2
37 -16 73 -17 45 -29 65 -42 66 -11 1 -109 -30 -219 -68z"/>
<path d="M5546 3309 c-7 -19 -162 -522 -198 -642 -16 -55 -28 -100 -26 -102 2
-1 46 -5 98 -9 l95 -7 18 68 c27 103 17 98 150 83 l115 -12 4 -79 c3 -43 7
-81 10 -84 2 -3 46 -8 96 -11 76 -6 92 -4 92 7 0 8 -9 86 -20 174 -11 88 -31
256 -44 374 -14 117 -27 215 -29 217 -5 5 -139 20 -264 29 -74 6 -94 4 -97 -6z
m208 -186 c11 -74 29 -293 25 -297 -4 -3 -155 13 -175 19 -8 2 -1 41 22 122
19 65 39 135 45 156 9 33 13 37 44 37 31 0 34 -3 39 -37z"/>
</g>
</svg>
